<svg width="428" height="48" viewBox="0 0 428 48" fill="none" xmlns="http://www.w3.org/2000/svg">
<path d="M6.9105 26.968V20.152H13.1985C14.4145 20.152 15.4545 19.912 16.3185 19.432C17.2145 18.952 17.9025 18.28 18.3825 17.416C18.8625 16.52 19.1025 15.496 19.1025 14.344C19.1025 13.128 18.8625 12.088 18.3825 11.224C17.9025 10.328 17.2145 9.656 16.3185 9.208C15.4545 8.728 14.4145 8.488 13.1985 8.488H6.9105V1.672H12.8145C15.7905 1.672 18.3345 2.168 20.4465 3.16C22.5905 4.152 24.2225 5.56 25.3425 7.384C26.4945 9.208 27.0705 11.4 27.0705 13.96V14.728C27.0705 17.224 26.4945 19.4 25.3425 21.256C24.2225 23.08 22.5905 24.488 20.4465 25.48C18.3345 26.472 15.7905 26.968 12.8145 26.968H6.9105ZM-0.00149989 37V1.672H7.8705V37H-0.00149989ZM43.302 37.912C41.062 37.912 39.078 37.528 37.35 36.76C35.654 35.992 34.23 34.968 33.078 33.688C31.958 32.376 31.094 30.92 30.486 29.32C29.91 27.688 29.622 26.024 29.622 24.328V23.368C29.622 21.608 29.91 19.928 30.486 18.328C31.094 16.696 31.958 15.24 33.078 13.96C34.198 12.68 35.59 11.672 37.254 10.936C38.95 10.168 40.87 9.784 43.014 9.784C45.83 9.784 48.198 10.424 50.118 11.704C52.07 12.952 53.558 14.6 54.582 16.648C55.606 18.664 56.118 20.872 56.118 23.272V25.864H32.838V21.496H51.462L48.966 23.512C48.966 21.944 48.742 20.6 48.294 19.48C47.846 18.36 47.174 17.512 46.278 16.936C45.414 16.328 44.326 16.024 43.014 16.024C41.67 16.024 40.534 16.328 39.606 16.936C38.678 17.544 37.974 18.44 37.494 19.624C37.014 20.776 36.774 22.2 36.774 23.896C36.774 25.464 36.998 26.84 37.446 28.024C37.894 29.176 38.598 30.072 39.558 30.712C40.518 31.352 41.766 31.672 43.302 31.672C44.71 31.672 45.862 31.4 46.758 30.856C47.654 30.312 48.262 29.64 48.582 28.84H55.638C55.254 30.6 54.502 32.168 53.382 33.544C52.262 34.92 50.854 35.992 49.158 36.76C47.462 37.528 45.51 37.912 43.302 37.912ZM61.2071 37V10.696H67.3031V22.024H66.8711C66.8711 19.336 67.2071 17.096 67.8791 15.304C68.5511 13.512 69.5591 12.168 70.9031 11.272C72.2471 10.344 73.8951 9.88 75.8471 9.88H76.1831C78.1671 9.88 79.8151 10.344 81.1271 11.272C82.4711 12.168 83.4791 13.512 84.1511 15.304C84.8551 17.096 85.2071 19.336 85.2071 22.024H83.3351C83.3351 19.336 83.6711 17.096 84.3431 15.304C85.0471 13.512 86.0711 12.168 87.4151 11.272C88.7591 10.344 90.4071 9.88 92.3591 9.88H92.6951C94.6791 9.88 96.3431 10.344 97.6871 11.272C99.0631 12.168 100.103 13.512 100.807 15.304C101.511 17.096 101.863 19.336 101.863 22.024V37H94.1831V21.592C94.1831 20.152 93.7991 18.984 93.0311 18.088C92.2951 17.192 91.2391 16.744 89.8631 16.744C88.4871 16.744 87.3991 17.208 86.5991 18.136C85.7991 19.032 85.3991 20.232 85.3991 21.736V37H77.6711V21.592C77.6711 20.152 77.2871 18.984 76.5191 18.088C75.7831 17.192 74.7431 16.744 73.3991 16.744C71.9911 16.744 70.8871 17.208 70.0871 18.136C69.2871 19.032 68.8871 20.232 68.8871 21.736V37H61.2071ZM117.29 37.816C114.25 37.816 111.914 36.84 110.282 34.888C108.65 32.904 107.834 29.928 107.834 25.96V10.696H115.514V26.344C115.514 27.752 115.914 28.872 116.714 29.704C117.514 30.536 118.586 30.952 119.93 30.952C121.306 30.952 122.426 30.52 123.29 29.656C124.154 28.792 124.586 27.624 124.586 26.152V10.696H132.266V37H126.17V25.912H126.698C126.698 28.568 126.346 30.792 125.642 32.584C124.97 34.344 123.962 35.656 122.618 36.52C121.274 37.384 119.61 37.816 117.626 37.816H117.29ZM150.196 37.864C148.34 37.864 146.644 37.528 145.108 36.856C143.604 36.184 142.292 35.256 141.172 34.072C140.052 32.856 139.188 31.432 138.58 29.8C138.004 28.168 137.716 26.408 137.716 24.52V23.416C137.716 21.528 137.988 19.768 138.532 18.136C139.108 16.504 139.924 15.08 140.98 13.864C142.068 12.616 143.364 11.656 144.868 10.984C146.372 10.28 148.052 9.928 149.908 9.928C152.02 9.928 153.844 10.392 155.38 11.32C156.916 12.216 158.116 13.56 158.98 15.352C159.844 17.112 160.324 19.288 160.42 21.88L158.404 20.008V1.96H166.132V37H160.036V26.104H161.092C160.996 28.6 160.468 30.728 159.508 32.488C158.58 34.248 157.316 35.592 155.716 36.52C154.116 37.416 152.276 37.864 150.196 37.864ZM152.116 31.432C153.3 31.432 154.372 31.176 155.332 30.664C156.324 30.12 157.108 29.336 157.684 28.312C158.292 27.288 158.596 26.056 158.596 24.616V22.84C158.596 21.432 158.292 20.248 157.684 19.288C157.076 18.328 156.276 17.592 155.284 17.08C154.292 16.568 153.22 16.312 152.068 16.312C150.788 16.312 149.636 16.648 148.612 17.32C147.62 17.96 146.836 18.856 146.26 20.008C145.684 21.128 145.396 22.44 145.396 23.944C145.396 25.48 145.684 26.808 146.26 27.928C146.836 29.048 147.636 29.912 148.66 30.52C149.684 31.128 150.836 31.432 152.116 31.432ZM188.986 37V29.224H187.69V20.776C187.69 19.432 187.37 18.424 186.73 17.752C186.09 17.08 185.066 16.744 183.658 16.744C182.954 16.744 182.026 16.76 180.874 16.792C179.722 16.824 178.538 16.872 177.322 16.936C176.106 17 175.002 17.064 174.01 17.128V10.648C174.746 10.584 175.61 10.52 176.602 10.456C177.594 10.392 178.618 10.344 179.674 10.312C180.73 10.28 181.722 10.264 182.65 10.264C185.338 10.264 187.594 10.648 189.418 11.416C191.274 12.184 192.682 13.352 193.642 14.92C194.602 16.456 195.082 18.44 195.082 20.872V37H188.986ZM180.586 37.672C178.698 37.672 177.034 37.336 175.594 36.664C174.186 35.992 173.082 35.032 172.282 33.784C171.482 32.504 171.082 30.984 171.082 29.224C171.082 27.304 171.578 25.736 172.57 24.52C173.562 23.272 174.954 22.36 176.746 21.784C178.538 21.176 180.602 20.872 182.938 20.872H188.554V25.144H182.89C181.546 25.144 180.506 25.48 179.77 26.152C179.066 26.792 178.714 27.672 178.714 28.792C178.714 29.848 179.066 30.712 179.77 31.384C180.506 32.024 181.546 32.344 182.89 32.344C183.754 32.344 184.522 32.2 185.194 31.912C185.898 31.592 186.474 31.064 186.922 30.328C187.37 29.592 187.626 28.568 187.69 27.256L189.514 29.176C189.354 31 188.906 32.536 188.17 33.784C187.466 35.032 186.474 35.992 185.194 36.664C183.946 37.336 182.41 37.672 180.586 37.672ZM218.828 37.24V31.096H227.036C228.508 31.096 229.612 30.712 230.348 29.944C231.084 29.176 231.452 28.088 231.452 26.68C231.452 25.272 231.084 24.2 230.348 23.464C229.612 22.696 228.508 22.312 227.036 22.312H218.828V17.56H226.652C229.084 17.56 231.244 17.864 233.132 18.472C235.02 19.048 236.508 19.992 237.596 21.304C238.684 22.616 239.228 24.392 239.228 26.632V27.304C239.228 29.384 238.748 31.176 237.788 32.68C236.828 34.152 235.42 35.288 233.564 36.088C231.708 36.856 229.404 37.24 226.652 37.24H218.828ZM212.108 37.24V1.672H219.788V37.24H212.108ZM218.828 21.064V16.36H225.74C227.244 16.36 228.332 15.976 229.004 15.208C229.676 14.44 230.012 13.416 230.012 12.136C230.012 10.792 229.676 9.736 229.004 8.968C228.332 8.2 227.244 7.816 225.74 7.816H218.828V1.672H225.26C229.292 1.672 232.38 2.52 234.524 4.216C236.7 5.912 237.788 8.328 237.788 11.464V12.184C237.788 14.36 237.228 16.104 236.108 17.416C235.02 18.728 233.532 19.672 231.644 20.248C229.788 20.792 227.66 21.064 225.26 21.064H218.828ZM246.158 37V10.696H253.838V37H246.158ZM242.654 16.36V10.696H253.838V16.36H242.654ZM249.134 8.104C247.694 8.104 246.622 7.736 245.918 7C245.246 6.232 244.91 5.272 244.91 4.12C244.91 2.936 245.246 1.976 245.918 1.24C246.622 0.471997 247.694 0.0879974 249.134 0.0879974C250.574 0.0879974 251.63 0.471997 252.302 1.24C253.006 1.976 253.358 2.936 253.358 4.12C253.358 5.272 253.006 6.232 252.302 7C251.63 7.736 250.574 8.104 249.134 8.104ZM260.942 37V10.696H267.038V21.976H266.606C266.606 19.288 266.942 17.048 267.614 15.256C268.318 13.464 269.374 12.12 270.782 11.224C272.19 10.328 273.902 9.88 275.918 9.88H276.254C279.326 9.88 281.662 10.888 283.262 12.904C284.894 14.888 285.71 17.912 285.71 21.976V37H278.03V21.544C278.03 20.136 277.614 18.984 276.782 18.088C275.95 17.192 274.83 16.744 273.422 16.744C271.982 16.744 270.814 17.208 269.918 18.136C269.054 19.032 268.622 20.216 268.622 21.688V37H260.942ZM302.622 47.464C301.342 47.464 300.03 47.416 298.686 47.32C297.342 47.224 296.11 47.096 294.99 46.936V40.456C296.11 40.616 297.342 40.744 298.686 40.84C300.062 40.968 301.31 41.032 302.43 41.032C304.51 41.032 306.19 40.792 307.47 40.312C308.782 39.832 309.742 39.096 310.35 38.104C310.958 37.144 311.262 35.896 311.262 34.36V29.128L312.654 26.056C312.59 28.392 312.126 30.392 311.262 32.056C310.43 33.72 309.262 35 307.758 35.896C306.254 36.76 304.462 37.192 302.382 37.192C300.59 37.192 298.958 36.872 297.486 36.232C296.046 35.56 294.814 34.632 293.79 33.448C292.766 32.264 291.982 30.888 291.438 29.32C290.894 27.72 290.622 25.992 290.622 24.136V23.032C290.622 21.176 290.91 19.448 291.486 17.848C292.062 16.248 292.894 14.856 293.982 13.672C295.07 12.488 296.366 11.576 297.87 10.936C299.374 10.264 301.038 9.928 302.862 9.928C304.974 9.928 306.798 10.392 308.334 11.32C309.902 12.248 311.134 13.608 312.03 15.4C312.926 17.192 313.406 19.352 313.47 21.88L312.414 22.168V10.696H318.51V33.88C318.51 37.112 317.934 39.72 316.782 41.704C315.63 43.688 313.87 45.144 311.502 46.072C309.166 47 306.206 47.464 302.622 47.464ZM304.782 30.712C305.966 30.712 307.038 30.456 307.998 29.944C308.958 29.4 309.71 28.632 310.254 27.64C310.83 26.648 311.118 25.448 311.118 24.04V22.648C311.118 21.272 310.814 20.12 310.206 19.192C309.63 18.232 308.862 17.512 307.902 17.032C306.942 16.52 305.918 16.264 304.83 16.264C303.55 16.264 302.414 16.568 301.422 17.176C300.43 17.784 299.662 18.632 299.118 19.72C298.574 20.808 298.302 22.088 298.302 23.56C298.302 25.064 298.574 26.36 299.118 27.448C299.694 28.504 300.462 29.32 301.422 29.896C302.414 30.44 303.534 30.712 304.782 30.712ZM334.04 37.816C331 37.816 328.664 36.84 327.032 34.888C325.4 32.904 324.584 29.928 324.584 25.96V10.696H332.264V26.344C332.264 27.752 332.664 28.872 333.464 29.704C334.264 30.536 335.336 30.952 336.68 30.952C338.056 30.952 339.176 30.52 340.04 29.656C340.904 28.792 341.336 27.624 341.336 26.152V10.696H349.016V37H342.92V25.912H343.448C343.448 28.568 343.096 30.792 342.392 32.584C341.72 34.344 340.712 35.656 339.368 36.52C338.024 37.384 336.36 37.816 334.376 37.816H334.04ZM356.098 37V10.696H362.194V21.976H361.762C361.762 19.288 362.098 17.048 362.77 15.256C363.474 13.464 364.53 12.12 365.938 11.224C367.346 10.328 369.058 9.88 371.074 9.88H371.41C374.482 9.88 376.818 10.888 378.418 12.904C380.05 14.888 380.866 17.912 380.866 21.976V37H373.186V21.544C373.186 20.136 372.77 18.984 371.938 18.088C371.106 17.192 369.986 16.744 368.578 16.744C367.138 16.744 365.97 17.208 365.074 18.136C364.21 19.032 363.778 20.216 363.778 21.688V37H356.098ZM397.778 47.464C396.498 47.464 395.186 47.416 393.842 47.32C392.498 47.224 391.266 47.096 390.146 46.936V40.456C391.266 40.616 392.498 40.744 393.842 40.84C395.218 40.968 396.466 41.032 397.586 41.032C399.666 41.032 401.346 40.792 402.626 40.312C403.938 39.832 404.898 39.096 405.506 38.104C406.114 37.144 406.418 35.896 406.418 34.36V29.128L407.81 26.056C407.746 28.392 407.282 30.392 406.418 32.056C405.586 33.72 404.418 35 402.914 35.896C401.41 36.76 399.618 37.192 397.538 37.192C395.746 37.192 394.114 36.872 392.642 36.232C391.202 35.56 389.97 34.632 388.946 33.448C387.922 32.264 387.138 30.888 386.594 29.32C386.05 27.72 385.778 25.992 385.778 24.136V23.032C385.778 21.176 386.066 19.448 386.642 17.848C387.218 16.248 388.05 14.856 389.138 13.672C390.226 12.488 391.522 11.576 393.026 10.936C394.53 10.264 396.194 9.928 398.018 9.928C400.13 9.928 401.954 10.392 403.49 11.32C405.058 12.248 406.29 13.608 407.186 15.4C408.082 17.192 408.562 19.352 408.626 21.88L407.57 22.168V10.696H413.666V33.88C413.666 37.112 413.09 39.72 411.938 41.704C410.786 43.688 409.026 45.144 406.658 46.072C404.322 47 401.362 47.464 397.778 47.464ZM399.938 30.712C401.122 30.712 402.194 30.456 403.154 29.944C404.114 29.4 404.866 28.632 405.41 27.64C405.986 26.648 406.274 25.448 406.274 24.04V22.648C406.274 21.272 405.97 20.12 405.362 19.192C404.786 18.232 404.018 17.512 403.058 17.032C402.098 16.52 401.074 16.264 399.986 16.264C398.706 16.264 397.57 16.568 396.578 17.176C395.586 17.784 394.818 18.632 394.274 19.72C393.73 20.808 393.458 22.088 393.458 23.56C393.458 25.064 393.73 26.36 394.274 27.448C394.85 28.504 395.618 29.32 396.578 29.896C397.57 30.44 398.69 30.712 399.938 30.712ZM419.117 37V28.408H427.565V37H419.117Z" fill="white"/>
</svg>
